<svg width="363" height="251" viewBox="0 0 363 251" fill="none" xmlns="http://www.w3.org/2000/svg">
    <path d="M293.386 180.693C293.386 216.975 263.975 246.386 227.693 246.386C191.412 246.386 162 216.975 162 180.693C162 144.412 191.412 115 227.693 115C263.975 115 293.386 144.412 293.386 180.693Z" fill="#6CC8E7" stroke="white" stroke-width="2"/>
    <path d="M101.25 202.5C157.169 202.5 202.5 157.169 202.5 101.25C202.5 45.3312 157.169 0 101.25 0C45.3312 0 0 45.3312 0 101.25C0 157.169 45.3312 202.5 101.25 202.5Z" fill="#676767"/>
    <path d="M277.682 241.364C324.45 241.364 362.364 203.45 362.364 156.682C362.364 109.913 324.45 72 277.682 72C230.913 72 193 109.913 193 156.682C193 203.45 230.913 241.364 277.682 241.364Z" fill="#676767"/>
    <path d="M162.557 250.114C203.733 250.114 237.114 216.733 237.114 175.557C237.114 134.38 203.733 101 162.557 101C121.38 101 88 134.38 88 175.557C88 216.733 121.38 250.114 162.557 250.114Z" fill="#676767"/>
    <mask id="path-5-inside-1_2_722" fill="white">
        <path fill-rule="evenodd" clip-rule="evenodd" d="M307.5 119.25C307.5 175.169 262.169 220.5 206.25 220.5C180.614 220.5 157.204 210.973 139.366 195.266C131.464 198.565 122.791 200.386 113.693 200.386C76.8596 200.386 47 170.527 47 133.693C47 96.8596 76.8596 67 113.693 67C115.603 67 117.494 67.0803 119.363 67.2376C137.058 37.7407 169.349 18 206.25 18C262.169 18 307.5 63.3312 307.5 119.25Z"/>
    </mask>
    <path fill-rule="evenodd" clip-rule="evenodd" d="M307.5 119.25C307.5 175.169 262.169 220.5 206.25 220.5C180.614 220.5 157.204 210.973 139.366 195.266C131.464 198.565 122.791 200.386 113.693 200.386C76.8596 200.386 47 170.527 47 133.693C47 96.8596 76.8596 67 113.693 67C115.603 67 117.494 67.0803 119.363 67.2376C137.058 37.7407 169.349 18 206.25 18C262.169 18 307.5 63.3312 307.5 119.25Z" fill="#6CC8E7"/>
    <path d="M139.366 195.266L140.688 193.765L139.75 192.939L138.596 193.42L139.366 195.266ZM119.363 67.2376L119.195 69.2306L120.437 69.3351L121.078 68.2665L119.363 67.2376ZM206.25 222.5C263.273 222.5 309.5 176.273 309.5 119.25H305.5C305.5 174.064 261.064 218.5 206.25 218.5V222.5ZM138.045 196.767C156.233 212.783 180.109 222.5 206.25 222.5V218.5C181.119 218.5 158.175 209.163 140.688 193.765L138.045 196.767ZM113.693 202.386C123.061 202.386 131.995 200.51 140.137 197.111L138.596 193.42C130.933 196.619 122.522 198.386 113.693 198.386V202.386ZM45 133.693C45 171.631 75.755 202.386 113.693 202.386V198.386C77.9641 198.386 49 169.422 49 133.693H45ZM113.693 65C75.755 65 45 95.755 45 133.693H49C49 97.9641 77.9641 69 113.693 69V65ZM119.531 65.2447C117.606 65.0826 115.659 65 113.693 65V69C115.547 69 117.382 69.0779 119.195 69.2306L119.531 65.2447ZM206.25 16C168.618 16 135.69 36.1344 117.648 66.2087L121.078 68.2665C138.427 39.347 170.08 20 206.25 20V16ZM309.5 119.25C309.5 62.2266 263.273 16 206.25 16V20C261.064 20 305.5 64.4357 305.5 119.25H309.5Z" fill="white" mask="url(#path-5-inside-1_2_722)"/>
    <path d="M71.86 125.18C71.86 122.1 71.79 119.09 71.65 116.15C71.5567 113.163 71.44 110.13 71.3 107.05C72.6533 107.143 73.9833 107.237 75.29 107.33C76.5967 107.377 77.9267 107.4 79.28 107.4C80.6333 107.4 81.9633 107.353 83.27 107.26C84.5767 107.12 85.9067 107.05 87.26 107.05C89.22 107.05 91.0867 107.237 92.86 107.61C94.6333 107.983 96.1733 108.613 97.48 109.5C98.8333 110.34 99.8833 111.46 100.63 112.86C101.423 114.26 101.82 116.01 101.82 118.11C101.82 120.35 101.307 122.287 100.28 123.92C99.3 125.507 98.0867 126.837 96.64 127.91C95.1933 128.937 93.63 129.753 91.95 130.36C90.3167 130.92 88.8233 131.293 87.47 131.48C88.03 132.18 88.8 133.16 89.78 134.42C90.76 135.68 91.8567 137.08 93.07 138.62C94.2833 140.113 95.5433 141.7 96.85 143.38C98.1567 145.013 99.4167 146.6 100.63 148.14C101.843 149.633 102.987 151.01 104.06 152.27C105.133 153.53 105.997 154.487 106.65 155.14C105.95 155.047 105.25 155 104.55 155C103.85 155 103.15 155 102.45 155C101.797 155 101.12 155 100.42 155C99.72 155 99.0433 155.047 98.39 155.14C97.69 154.16 96.6167 152.69 95.17 150.73C93.77 148.77 92.2067 146.67 90.48 144.43C88.7533 142.19 86.98 139.973 85.16 137.78C83.3867 135.54 81.7533 133.65 80.26 132.11H77.6V137.22C77.6 140.3 77.6467 143.333 77.74 146.32C77.88 149.307 78.02 152.247 78.16 155.14C77.0867 155.047 75.9433 155 74.73 155C73.5167 155 72.3733 155.047 71.3 155.14C71.44 152.247 71.5567 149.307 71.65 146.32C71.79 143.333 71.86 140.3 71.86 137.22V125.18ZM77.6 129.17C78.2533 129.31 78.9533 129.403 79.7 129.45C80.4933 129.497 81.3567 129.52 82.29 129.52C83.7367 129.52 85.23 129.357 86.77 129.03C88.3567 128.703 89.8033 128.143 91.11 127.35C92.4167 126.51 93.49 125.413 94.33 124.06C95.2167 122.66 95.66 120.91 95.66 118.81C95.66 116.99 95.31 115.497 94.61 114.33C93.9567 113.117 93.0933 112.16 92.02 111.46C90.9467 110.76 89.78 110.293 88.52 110.06C87.26 109.78 86.0233 109.64 84.81 109.64C83.1767 109.64 81.8233 109.687 80.75 109.78C79.6767 109.827 78.7667 109.897 78.02 109.99C77.9267 112.557 77.8333 115.1 77.74 117.62C77.6467 120.14 77.6 122.66 77.6 125.18V129.17ZM133.413 123.43C131.686 123.43 130.216 123.827 129.003 124.62C127.836 125.413 126.856 126.417 126.063 127.63C125.316 128.797 124.733 130.103 124.313 131.55C123.94 132.95 123.706 134.28 123.613 135.54C125.06 135.587 126.553 135.633 128.093 135.68C129.68 135.727 131.22 135.75 132.713 135.75C134.253 135.75 135.816 135.727 137.403 135.68C138.99 135.633 140.53 135.587 142.023 135.54C142.023 134.28 141.906 132.95 141.673 131.55C141.486 130.15 141.066 128.843 140.413 127.63C139.806 126.417 138.943 125.413 137.823 124.62C136.703 123.827 135.233 123.43 133.413 123.43ZM117.243 139.6C117.243 133.86 118.596 129.357 121.303 126.09C124.056 122.823 128.046 121.19 133.273 121.19C135.746 121.19 137.87 121.587 139.643 122.38C141.463 123.127 142.98 124.153 144.193 125.46C145.406 126.72 146.293 128.213 146.853 129.94C147.46 131.667 147.763 133.51 147.763 135.47C147.763 135.937 147.74 136.403 147.693 136.87C147.693 137.29 147.67 137.733 147.623 138.2C145.103 138.153 142.606 138.107 140.133 138.06C137.66 138.013 135.163 137.99 132.643 137.99C131.103 137.99 129.563 138.013 128.023 138.06C126.53 138.107 125.013 138.153 123.473 138.2C123.426 138.433 123.403 138.783 123.403 139.25V140.16C123.403 141.98 123.66 143.683 124.173 145.27C124.733 146.857 125.526 148.233 126.553 149.4C127.58 150.52 128.84 151.43 130.333 152.13C131.826 152.783 133.553 153.11 135.513 153.11C136.446 153.11 137.403 152.993 138.383 152.76C139.363 152.48 140.32 152.13 141.253 151.71C142.186 151.243 143.05 150.707 143.843 150.1C144.683 149.493 145.406 148.84 146.013 148.14L146.363 148.35L145.943 151.78C144.543 152.9 142.793 153.857 140.693 154.65C138.64 155.443 136.493 155.84 134.253 155.84C131.733 155.84 129.423 155.467 127.323 154.72C125.27 153.927 123.473 152.807 121.933 151.36C120.44 149.867 119.273 148.117 118.433 146.11C117.64 144.103 117.243 141.933 117.243 139.6ZM168.483 112.51C168.343 114.283 168.226 116.033 168.133 117.76C168.086 119.44 168.016 121.143 167.923 122.87C168.436 122.87 169.393 122.87 170.793 122.87C172.193 122.823 173.71 122.753 175.343 122.66C175.296 122.8 175.273 123.057 175.273 123.43V124.13V124.9C175.273 125.227 175.296 125.46 175.343 125.6C174.736 125.553 174.106 125.53 173.453 125.53C172.8 125.483 172.1 125.46 171.353 125.46H167.923C167.876 125.647 167.806 126.393 167.713 127.7C167.666 129.007 167.62 130.57 167.573 132.39C167.526 134.163 167.48 136.03 167.433 137.99C167.433 139.95 167.433 141.7 167.433 143.24C167.433 144.547 167.456 145.83 167.503 147.09C167.596 148.35 167.83 149.493 168.203 150.52C168.576 151.5 169.136 152.293 169.883 152.9C170.63 153.507 171.703 153.81 173.103 153.81C173.476 153.81 173.966 153.763 174.573 153.67C175.226 153.577 175.786 153.46 176.253 153.32V155C175.46 155.14 174.573 155.303 173.593 155.49C172.66 155.723 171.75 155.84 170.863 155.84C167.923 155.84 165.753 155.117 164.353 153.67C162.953 152.223 162.253 150.1 162.253 147.3C162.253 146.04 162.276 144.687 162.323 143.24C162.37 141.747 162.416 140.137 162.463 138.41C162.556 136.637 162.626 134.7 162.673 132.6C162.72 130.453 162.743 128.073 162.743 125.46H160.503C160.13 125.46 159.733 125.483 159.313 125.53C158.893 125.53 158.45 125.553 157.983 125.6C158.03 125.32 158.053 125.063 158.053 124.83C158.1 124.55 158.123 124.27 158.123 123.99C158.123 123.757 158.1 123.523 158.053 123.29C158.053 123.057 158.03 122.823 157.983 122.59C160.083 122.73 161.623 122.8 162.603 122.8C162.556 121.867 162.51 120.7 162.463 119.3C162.463 117.9 162.416 116.453 162.323 114.96L168.133 112.51H168.483ZM194.965 112.51C194.825 114.283 194.709 116.033 194.615 117.76C194.569 119.44 194.499 121.143 194.405 122.87C194.919 122.87 195.875 122.87 197.275 122.87C198.675 122.823 200.192 122.753 201.825 122.66C201.779 122.8 201.755 123.057 201.755 123.43V124.13V124.9C201.755 125.227 201.779 125.46 201.825 125.6C201.219 125.553 200.589 125.53 199.935 125.53C199.282 125.483 198.582 125.46 197.835 125.46H194.405C194.359 125.647 194.289 126.393 194.195 127.7C194.149 129.007 194.102 130.57 194.055 132.39C194.009 134.163 193.962 136.03 193.915 137.99C193.915 139.95 193.915 141.7 193.915 143.24C193.915 144.547 193.939 145.83 193.985 147.09C194.079 148.35 194.312 149.493 194.685 150.52C195.059 151.5 195.619 152.293 196.365 152.9C197.112 153.507 198.185 153.81 199.585 153.81C199.959 153.81 200.449 153.763 201.055 153.67C201.709 153.577 202.269 153.46 202.735 153.32V155C201.942 155.14 201.055 155.303 200.075 155.49C199.142 155.723 198.232 155.84 197.345 155.84C194.405 155.84 192.235 155.117 190.835 153.67C189.435 152.223 188.735 150.1 188.735 147.3C188.735 146.04 188.759 144.687 188.805 143.24C188.852 141.747 188.899 140.137 188.945 138.41C189.039 136.637 189.109 134.7 189.155 132.6C189.202 130.453 189.225 128.073 189.225 125.46H186.985C186.612 125.46 186.215 125.483 185.795 125.53C185.375 125.53 184.932 125.553 184.465 125.6C184.512 125.32 184.535 125.063 184.535 124.83C184.582 124.55 184.605 124.27 184.605 123.99C184.605 123.757 184.582 123.523 184.535 123.29C184.535 123.057 184.512 122.823 184.465 122.59C186.565 122.73 188.105 122.8 189.085 122.8C189.039 121.867 188.992 120.7 188.945 119.3C188.945 117.9 188.899 116.453 188.805 114.96L194.615 112.51H194.965ZM216.898 122.52C216.898 120.933 216.874 119.207 216.828 117.34C216.828 115.473 216.804 113.63 216.758 111.81C216.711 109.99 216.641 108.263 216.548 106.63C216.501 104.95 216.431 103.527 216.338 102.36C217.644 102.593 218.694 102.71 219.488 102.71C220.281 102.71 221.331 102.593 222.638 102.36C222.544 103.527 222.451 104.95 222.358 106.63C222.311 108.263 222.264 109.99 222.218 111.81C222.171 113.63 222.124 115.473 222.078 117.34C222.078 119.207 222.078 120.933 222.078 122.52V135.19C222.078 136.777 222.078 138.503 222.078 140.37C222.124 142.237 222.171 144.08 222.218 145.9C222.264 147.72 222.311 149.447 222.358 151.08C222.451 152.713 222.544 154.067 222.638 155.14C221.564 155.047 220.514 155 219.488 155C218.461 155 217.411 155.047 216.338 155.14C216.431 154.067 216.501 152.713 216.548 151.08C216.641 149.447 216.711 147.72 216.758 145.9C216.804 144.08 216.828 142.237 216.828 140.37C216.874 138.503 216.898 136.777 216.898 135.19V122.52ZM254.86 123.43C253.134 123.43 251.664 123.827 250.45 124.62C249.284 125.413 248.304 126.417 247.51 127.63C246.764 128.797 246.18 130.103 245.76 131.55C245.387 132.95 245.154 134.28 245.06 135.54C246.507 135.587 248 135.633 249.54 135.68C251.127 135.727 252.667 135.75 254.16 135.75C255.7 135.75 257.264 135.727 258.85 135.68C260.437 135.633 261.977 135.587 263.47 135.54C263.47 134.28 263.354 132.95 263.12 131.55C262.934 130.15 262.514 128.843 261.86 127.63C261.254 126.417 260.39 125.413 259.27 124.62C258.15 123.827 256.68 123.43 254.86 123.43ZM238.69 139.6C238.69 133.86 240.044 129.357 242.75 126.09C245.504 122.823 249.494 121.19 254.72 121.19C257.194 121.19 259.317 121.587 261.09 122.38C262.91 123.127 264.427 124.153 265.64 125.46C266.854 126.72 267.74 128.213 268.3 129.94C268.907 131.667 269.21 133.51 269.21 135.47C269.21 135.937 269.187 136.403 269.14 136.87C269.14 137.29 269.117 137.733 269.07 138.2C266.55 138.153 264.054 138.107 261.58 138.06C259.107 138.013 256.61 137.99 254.09 137.99C252.55 137.99 251.01 138.013 249.47 138.06C247.977 138.107 246.46 138.153 244.92 138.2C244.874 138.433 244.85 138.783 244.85 139.25V140.16C244.85 141.98 245.107 143.683 245.62 145.27C246.18 146.857 246.974 148.233 248 149.4C249.027 150.52 250.287 151.43 251.78 152.13C253.274 152.783 255 153.11 256.96 153.11C257.894 153.11 258.85 152.993 259.83 152.76C260.81 152.48 261.767 152.13 262.7 151.71C263.634 151.243 264.497 150.707 265.29 150.1C266.13 149.493 266.854 148.84 267.46 148.14L267.81 148.35L267.39 151.78C265.99 152.9 264.24 153.857 262.14 154.65C260.087 155.443 257.94 155.84 255.7 155.84C253.18 155.84 250.87 155.467 248.77 154.72C246.717 153.927 244.92 152.807 243.38 151.36C241.887 149.867 240.72 148.117 239.88 146.11C239.087 144.103 238.69 141.933 238.69 139.6Z" fill="white"/>
</svg>
